<?xml version="1.0" encoding="UTF-8"?>
<svg version="1.1" xmlns="http://www.w3.org/2000/svg" width="333" height="287">
<path d="M0 0 C0.57561676 0.32062408 1.15123352 0.64124817 1.74429321 0.97158813 C3.57329013 1.99128945 5.39992543 3.01514114 7.2265625 4.0390625 C8.445164 4.71901621 9.66391275 5.39870609 10.8828125 6.078125 C11.47451233 6.40854797 12.06621216 6.73897095 12.67584229 7.07940674 C14.39719488 8.04000772 16.11996781 8.99806211 17.84277344 9.95605469 C20.237963 11.31573874 22.56148567 12.73653646 24.890625 14.203125 C28.40402814 15.93665109 29.1832974 15.75696161 32.8515625 14.6640625 C35.03353718 13.56924347 37.17670648 12.39563733 39.2890625 11.171875 C40.19289673 10.65196487 40.19289673 10.65196487 41.11499023 10.12155151 C43.03104835 9.01726203 44.94128284 7.90331194 46.8515625 6.7890625 C48.13505012 6.04754227 49.41890103 5.30665048 50.703125 4.56640625 C57.18601513 0.84034584 57.18601513 0.84034584 63.57250977 -3.04663086 C66.60261302 -4.76082211 68.40837849 -4.76579275 71.8515625 -4.3359375 C75.10546875 -2.98046875 75.10546875 -2.98046875 78.4140625 -1.1484375 C79.50847656 -0.55675781 80.60289062 0.03492188 81.73046875 0.64453125 C89.24636924 5.50776098 89.24636924 5.50776098 90.49682617 9.96313477 C91.51057819 16.58822696 92.60573064 25.6926121 88.59765625 31.47216797 C85.04281126 34.68746849 80.75714237 36.56236376 76.40771484 38.48193359 C71.59511071 40.70759063 67.06528411 43.45314464 62.4765625 46.1015625 C61.55528564 46.61090332 60.63400879 47.12024414 59.68481445 47.64501953 C58.82460693 48.12438965 57.96439941 48.60375977 57.078125 49.09765625 C56.31064941 49.52103271 55.54317383 49.94440918 54.75244141 50.38061523 C52.56557237 51.68226318 52.56557237 51.68226318 50.8515625 54.6640625 C50.55280594 56.67327303 50.55280594 56.67327303 50.59619141 58.88842773 C50.58923248 59.73618271 50.58227356 60.58393768 50.57510376 61.4573822 C50.57659927 62.82619286 50.57659927 62.82619286 50.578125 64.22265625 C50.55783835 66.15430269 50.53698761 68.08594328 50.515625 70.01757812 C50.49300536 73.06360824 50.47654745 76.10940728 50.47070312 79.15551758 C50.46119258 82.09498883 50.42743483 85.03341795 50.390625 87.97265625 C50.39567047 88.88317245 50.40071594 89.79368866 50.40591431 90.73179626 C50.30735758 97.05473068 50.30735758 97.05473068 48.02587891 100.10473633 C47.30835449 100.61931396 46.59083008 101.1338916 45.8515625 101.6640625 C45.02543457 102.36063965 45.02543457 102.36063965 44.18261719 103.07128906 C33.34514821 111.12763004 33.34514821 111.12763004 27.62158203 110.36816406 C20.28297126 107.94526797 13.94369242 103.42695536 8.8515625 97.6640625 C7.93294466 94.90820898 7.72951928 93.3044556 7.73803711 90.46801758 C7.73811264 89.62737259 7.73818817 88.7867276 7.73826599 87.92060852 C7.74342728 87.01739365 7.74858856 86.11417877 7.75390625 85.18359375 C7.7553212 84.25560471 7.75673615 83.32761566 7.75819397 82.37150574 C7.76379313 79.40649192 7.77634546 76.44155351 7.7890625 73.4765625 C7.79407761 71.46679797 7.7986405 69.45703225 7.80273438 67.44726562 C7.81376229 62.51950218 7.83102633 57.59179513 7.8515625 52.6640625 C7.22290283 52.31214844 6.59424316 51.96023437 5.9465332 51.59765625 C-27.9114119 32.62011234 -27.9114119 32.62011234 -31.1484375 28.6640625 C-32.67540014 21.78563717 -32.509983 13.55801657 -31.1484375 6.6640625 C-28.48754806 2.66997379 -25.53443722 1.38265831 -21.1484375 -0.3359375 C-19.37689096 -1.35553263 -17.60602514 -2.37631171 -15.8359375 -3.3984375 C-9.76180119 -6.70156287 -5.59081947 -3.12375675 0 0 Z " fill="#408F4D" transform="translate(136.1484375,35.3359375)"/>
<path d="M0 0 C54.76785714 0 54.76785714 0 63.58203125 8.53125 C70.09690069 15.50580609 71.61322381 22.23245607 71.33984375 31.69140625 C70.33337955 41.48997147 66.14968625 48.34553011 59 55 C58.01 55.495 58.01 55.495 57 56 C57.57532402 60.37346751 59.18141492 63.29147968 61.52734375 67 C61.87632217 67.55816406 62.2253006 68.11632812 62.58485413 68.69140625 C63.69528074 70.46553381 64.81559438 72.23311318 65.9375 74 C67.05456661 75.76762343 68.16931863 77.53659602 69.2794342 79.30859375 C70.28794974 80.91722646 71.30381397 82.52124508 72.32006836 84.125 C74 87 74 87 76 92 C69.07 92 62.14 92 55 92 C54.07703125 89.77378906 53.1540625 87.54757813 52.203125 85.25390625 C46.55128862 70.51377695 46.55128862 70.51377695 36.27929688 59.43359375 C29.98390882 57.82345257 25.70320391 58.92934938 19 60 C19 70.56 19 81.12 19 92 C12.73 92 6.46 92 0 92 C0 61.64 0 31.28 0 0 Z M19 16 C19 25.57 19 35.14 19 45 C23.6715625 45.0928125 23.6715625 45.0928125 28.4375 45.1875 C29.39970459 45.21481201 30.36190918 45.24212402 31.35327148 45.27026367 C38.80638842 45.34098501 45.2715759 44.38737108 51 39.375 C53.48499028 35.18157891 54.28759363 31.8542318 54 27 C52.32791431 21.78702696 49.79385703 19.53792431 45 17 C39.57604527 15.72084375 34.16086585 15.88656751 28.625 15.9375 C25.44875 15.958125 22.2725 15.97875 19 16 Z " fill="#3C3C3C" transform="translate(135,159)"/>
<path d="M0 0 C6.93 0 13.86 0 21 0 C27.66666667 11.66666667 34.33333333 23.33333333 41 35 C41.43828125 34.23300781 41.8765625 33.46601563 42.328125 32.67578125 C48.55208333 21.78385417 54.77604167 10.89192708 61 0 C67.93 0 74.86 0 82 0 C80.948125 1.835625 79.89625 3.67125 78.8125 5.5625 C76.16715169 10.18350253 73.53853641 14.81360797 70.92578125 19.453125 C70.38687256 20.40703125 69.84796387 21.3609375 69.29272461 22.34375 C68.16788202 24.34610484 67.05300876 26.35408847 65.94750977 28.3671875 C63.51100747 32.76760233 61.13300026 36.99562525 57.9765625 40.921875 C46.94113212 55.24870901 49.70406691 74.8097693 50 92 C43.73 92 37.46 92 31 92 C31.10183594 89.57011719 31.20367187 87.14023438 31.30859375 84.63671875 C31.89329664 62.90541455 29.64135287 48.49571397 17.11474609 30.16113281 C13.50786733 24.76955279 10.35267018 19.12337508 7.125 13.5 C5.47305462 10.70337686 3.81937276 7.90783951 2.16064453 5.11523438 C1 3 1 3 0 0 Z " fill="#3D3D3D" transform="translate(45,159)"/>
<path d="M0 0 C6.27 0 12.54 0 19 0 C19.06814042 8.26770445 19.12302426 16.53518565 19.15543652 24.80309677 C19.17100327 28.64341528 19.192074 32.48352949 19.22631836 36.32373047 C19.25923673 40.03905456 19.27692036 43.75418382 19.28463173 47.46964264 C19.29011765 48.87762768 19.30082777 50.28560369 19.31719017 51.69350433 C19.43988636 62.7022015 19.27289107 74.40736887 11.8671875 83.25 C3.17391303 91.39767147 -7.37928148 93.8603279 -19 94 C-28.87217384 93.37134742 -38.41538692 91.23028239 -45.375 83.75 C-52.01712432 75.13217298 -53.14073963 66.5554723 -53 56 C-47.39 56 -41.78 56 -36 56 C-35.608125 57.876875 -35.21625 59.75375 -34.8125 61.6875 C-33.53405474 66.78327477 -32.41354543 69.84746755 -28 73 C-22.09546599 75.76929568 -15.91118125 76.06901353 -9.61328125 74.34765625 C-5.35379389 72.51316354 -3.46058787 70.83123765 -1.64303589 66.40953064 C-0.16425843 60.86837866 -0.51371927 55.0156918 -0.48828125 49.31640625 C-0.47141582 47.89149954 -0.45326308 46.46660753 -0.43388367 45.04173279 C-0.38657933 41.31166176 -0.35664413 37.58165039 -0.33044434 33.85137939 C-0.30053936 30.0368675 -0.25404346 26.22256078 -0.20898438 22.40820312 C-0.12317408 14.93888681 -0.05726619 7.46959969 0 0 Z " fill="#3E3E3E" transform="translate(267,159)"/>
<path d="M0 0 C0.57561676 0.32062408 1.15123352 0.64124817 1.74429321 0.97158813 C3.57329013 1.99128945 5.39992543 3.01514114 7.2265625 4.0390625 C8.445164 4.71901621 9.66391275 5.39870609 10.8828125 6.078125 C11.47451233 6.40854797 12.06621216 6.73897095 12.67584229 7.07940674 C14.39719488 8.04000772 16.11996781 8.99806211 17.84277344 9.95605469 C20.237963 11.31573874 22.56148567 12.73653646 24.890625 14.203125 C28.40402814 15.93665109 29.1832974 15.75696161 32.8515625 14.6640625 C35.03353718 13.56924347 37.17670648 12.39563733 39.2890625 11.171875 C40.19289673 10.65196487 40.19289673 10.65196487 41.11499023 10.12155151 C43.03104835 9.01726203 44.94128284 7.90331194 46.8515625 6.7890625 C48.13505012 6.04754227 49.41890103 5.30665048 50.703125 4.56640625 C57.18591451 0.84023173 57.18591451 0.84023173 63.57275391 -3.04614258 C66.60697721 -4.76349867 68.40324133 -4.77457785 71.8515625 -4.3359375 C75.140625 -2.91015625 75.140625 -2.91015625 78.4765625 -1.0234375 C80.13558594 -0.10111328 80.13558594 -0.10111328 81.828125 0.83984375 C84.30442574 2.33394251 86.58862915 3.87027387 88.8515625 5.6640625 C87.56741492 9.51650523 86.35241231 9.7780735 82.83203125 11.67578125 C81.75977295 12.26149902 80.68751465 12.8472168 79.58276367 13.45068359 C78.40161091 14.08446081 77.22037507 14.71808321 76.0390625 15.3515625 C73.57838417 16.68711719 71.12116677 18.02897747 68.6640625 19.37109375 C68.02780441 19.7175293 67.39154633 20.06396484 66.73600769 20.42089844 C62.12966874 22.93773768 57.57471723 25.53394211 53.0390625 28.17578125 C52.40720535 28.54267563 51.77534821 28.90957001 51.12434387 29.2875824 C48.65670682 30.72115747 46.18945667 32.15502975 43.73202515 33.60604858 C42.03052764 34.61004365 40.32202328 35.60213488 38.61328125 36.59375 C37.64350342 37.16335449 36.67372559 37.73295898 35.67456055 38.31982422 C32.61919869 39.7747081 30.22837988 40.45592589 26.8515625 40.6640625 C24.69946289 39.88232422 24.69946289 39.88232422 22.69921875 38.59375 C21.93391846 38.11558838 21.16861816 37.63742676 20.38012695 37.14477539 C19.56632568 36.61489014 18.75252441 36.08500488 17.9140625 35.5390625 C16.13986102 34.42804553 14.36373817 33.32009231 12.5859375 32.21484375 C11.65587891 31.63299316 10.72582031 31.05114258 9.76757812 30.45166016 C4.80800853 27.4113078 -0.26219752 24.5708882 -5.3359375 21.7265625 C-6.75024048 20.93064697 -6.75024048 20.93064697 -8.19311523 20.11865234 C-10.84263777 18.62972283 -13.49493079 17.14587778 -16.1484375 15.6640625 C-17.40261475 14.96192627 -17.40261475 14.96192627 -18.68212891 14.24560547 C-19.47151855 13.80490723 -20.2609082 13.36420898 -21.07421875 12.91015625 C-21.76555908 12.52400146 -22.45689941 12.13784668 -23.16918945 11.73999023 C-25.13838797 10.66952547 -27.14371555 9.66642348 -29.1484375 8.6640625 C-29.4784375 15.2640625 -29.8084375 21.8640625 -30.1484375 28.6640625 C-30.4784375 28.6640625 -30.8084375 28.6640625 -31.1484375 28.6640625 C-32.77291447 9.12785257 -32.77291447 9.12785257 -29.2734375 3.8203125 C-26.63490873 2.00632397 -24.1264219 0.83094618 -21.1484375 -0.3359375 C-19.37689096 -1.35553263 -17.60602514 -2.37631171 -15.8359375 -3.3984375 C-9.76180119 -6.70156287 -5.59081947 -3.12375675 0 0 Z " fill="#86B965" transform="translate(136.1484375,35.3359375)"/>
<path d="M0 0 C7.11105896 2.96848981 13.79311023 6.52857439 20.5 10.3125 C21.44230469 10.83650391 22.38460937 11.36050781 23.35546875 11.90039062 C25.50842916 13.10919106 27.63626633 14.36327365 29.74438477 15.64868164 C33.16464307 17.65882164 36.69061999 19.12070607 40.36303711 20.61499023 C47.43072997 23.7546987 54.02876287 26.91452006 59 33 C62.75400308 43.1731497 61.48826657 54.46623128 60.71661377 65.08862305 C60.45816444 69.02769782 60.34615738 72.97086312 60.22070312 76.91601562 C59.95457401 84.62174951 59.52979957 92.30740639 59 100 C56.118213 100.88664474 55.29241054 101.11591834 52.37890625 99.9609375 C39.99601594 92.98804781 39.99601594 92.98804781 38 87 C37.91410697 85.60344541 37.88227285 84.20314223 37.88647461 82.80395508 C37.88655014 81.96331009 37.88662567 81.1226651 37.88670349 80.25654602 C37.89186478 79.35333115 37.89702606 78.45011627 37.90234375 77.51953125 C37.9037587 76.59154221 37.90517365 75.66355316 37.90663147 74.70744324 C37.91223063 71.74242942 37.92478296 68.77749101 37.9375 65.8125 C37.94251511 63.80273547 37.947078 61.79296975 37.95117188 59.78320312 C37.96219979 54.85543968 37.97946383 49.92773263 38 45 C37.37134033 44.64808594 36.74268066 44.29617187 36.0949707 43.93359375 C3.87304891 25.87304891 3.87304891 25.87304891 0 22 C-0.22705078 19.75341797 -0.22705078 19.75341797 -0.1953125 16.9921875 C-0.18886719 16.00605469 -0.18242188 15.01992188 -0.17578125 14.00390625 C-0.15902344 12.97136719 -0.14226562 11.93882813 -0.125 10.875 C-0.11597656 9.83472656 -0.10695313 8.79445313 -0.09765625 7.72265625 C-0.07403747 5.14820908 -0.04110149 2.57421788 0 0 Z " fill="#126442" transform="translate(106,43)"/>
<path d="M0 0 C2.00737751 0.64411179 4.00541909 1.3172911 6 2 C6.62745117 2.2052832 7.25490234 2.41056641 7.90136719 2.62207031 C12.94088356 4.41206247 17.87921465 6.48998326 21 11 C22.92095319 18.7866475 21.91112273 27.11388232 21 35 C18.80845993 33.94526435 16.62205465 32.88153738 14.4375 31.8125 C13.82841797 31.52052734 13.21933594 31.22855469 12.59179688 30.92773438 C10.70069054 29.99718999 8.85320503 29.00362972 7 28 C6.33621338 27.69022217 5.67242676 27.38044434 4.98852539 27.0612793 C2.84511164 25.88021458 1.50042676 24.94346508 0 23 C-0.85287118 19.02942349 -0.66192567 15.2246959 -0.4375 11.1875 C-0.40591797 10.11306641 -0.37433594 9.03863281 -0.34179688 7.93164062 C-0.25945583 5.28496431 -0.14453557 2.64388906 0 0 Z " fill="#1D6B4A" transform="translate(105,88)"/>
<path d="M0 0 C0.26260373 3.70697705 0.42156838 7.41156358 0.5625 11.125 C0.63791016 12.17171875 0.71332031 13.2184375 0.79101562 14.296875 C1.00781608 21.90897971 1.00781608 21.90897971 -1.81274414 24.96240234 C-4.14152649 26.5424631 -6.45676414 27.79943736 -9 29 C-10.15628906 29.62648438 -11.31257812 30.25296875 -12.50390625 30.8984375 C-14.01791016 31.62933594 -14.01791016 31.62933594 -15.5625 32.375 C-16.59503906 32.87773438 -17.62757813 33.38046875 -18.69140625 33.8984375 C-19.45324219 34.26195312 -20.21507812 34.62546875 -21 35 C-23.15726764 18.65162065 -23.15726764 18.65162065 -21 11 C-16.80913626 5.6160345 -10.2389652 3.2708061 -4 1 C-2 0 -2 0 0 0 Z " fill="#499455" transform="translate(226,88)"/>
<path d="M0 0 C2.82523901 1.18134133 5.35372502 2.6770389 7.9375 4.3125 C8.62134766 4.71662109 9.30519531 5.12074219 10.00976562 5.53710938 C11.96484375 6.73828125 11.96484375 6.73828125 15 9 C15 9.99 15 10.98 15 12 C12.24332468 14.34411167 9.08083122 16.11016104 6 18 C5.35804688 18.433125 4.71609375 18.86625 4.0546875 19.3125 C1.36983332 21.0462175 -0.4574991 22.0252326 -3.6875 21.875 C-7.99324212 20.73763416 -11.48064559 18.7904845 -15.3125 16.5625 C-16.04017578 16.15451172 -16.76785156 15.74652344 -17.51757812 15.32617188 C-22.86415015 12.27169969 -22.86415015 12.27169969 -24 10 C-21.32786948 8.30769568 -18.63519351 6.65119371 -15.9375 5 C-15.18533203 4.52304688 -14.43316406 4.04609375 -13.65820312 3.5546875 C-8.96105039 0.70792827 -5.63492228 -0.9540948 0 0 Z " fill="#89BB69" transform="translate(169,8)"/>
<path d="M0 0 C1.8125 1 1.8125 1 3 3 C3.98029781 7.34131887 4.44824016 9.76074779 2.9375 13.9375 C1 16 1 16 -1.875 17.0625 C-5 17 -5 17 -7.875 15.625 C-10.55370496 12.31601152 -10.67168429 10.29121254 -10.41796875 6.12890625 C-10 4 -10 4 -8.375 1.4375 C-5.31352771 -0.41549639 -3.5214898 -0.5244772 0 0 Z M-4 2 C-4.99 2.66 -5.98 3.32 -7 4 C-7.40087331 5.90706576 -7.40087331 5.90706576 -7.25 8 C-7.23453125 8.70125 -7.2190625 9.4025 -7.203125 10.125 C-7.10043334 12.08936628 -7.10043334 12.08936628 -6 14 C-3.58380177 14.25030977 -3.58380177 14.25030977 -1 14 C1.35062805 11.10622176 1.35062805 11.10622176 0.875 7.4375 C0.38164833 3.93198035 0.38164833 3.93198035 -2.0625 2.5625 C-3.0215625 2.2840625 -3.0215625 2.2840625 -4 2 Z " fill="#656565" transform="translate(245,264)"/>
<path d="M0 0 C2.4375 1.9375 2.4375 1.9375 4 5 C4.27998935 8.19747837 4.01437435 10.9510135 3 14 C0.34873224 16.5039751 -1.00013198 17.02380638 -4.625 16.9375 C-7.63437018 15.74959072 -8.55072523 14.89854954 -10 12 C-10.37415101 7.80950867 -10.44561026 4.53254815 -8 1 C-5.12529507 -0.43735246 -3.18105412 -0.38172649 0 0 Z M-7 4 C-7.40087331 5.90706576 -7.40087331 5.90706576 -7.25 8 C-7.23453125 8.70125 -7.2190625 9.4025 -7.203125 10.125 C-7.10043334 12.08936628 -7.10043334 12.08936628 -6 14 C-3.58354218 14.16687448 -3.58354218 14.16687448 -1 14 C1.38785276 12.05765911 1.38785276 12.05765911 1.1875 8.5 C1.24131237 5.15035297 1.24131237 5.15035297 0 3 C-3.41765047 1.63293981 -3.74199796 1.82799864 -7 4 Z " fill="#727272" transform="translate(27,264)"/>
<path d="M0 0 C8 0 8 0 10.0625 1.1875 C11.40184476 3.77689986 10.82159973 5.26133423 10 8 C9.67 8.99 9.34 9.98 9 11 C9.87914688 13.6569191 9.87914688 13.6569191 11 16 C10.01 16 9.02 16 8 16 C6.95107762 14.36368108 5.95093297 12.69514137 5 11 C4.34 10.67 3.68 10.34 3 10 C3 11.98 3 13.96 3 16 C2.01 16 1.02 16 0 16 C0 10.72 0 5.44 0 0 Z M3 2 C3 3.98 3 5.96 3 8 C4.65 7.67 6.3 7.34 8 7 C8 5.68 8 4.36 8 3 C6.35 2.67 4.7 2.34 3 2 Z " fill="#666666" transform="translate(92,264)"/>
<path d="M0 0 C3.625 0.1875 3.625 0.1875 6.625 2.1875 C6.9375 5.1875 6.9375 5.1875 6.625 8.1875 C5.965 8.8475 5.305 9.5075 4.625 10.1875 C5.615 12.1675 6.605 14.1475 7.625 16.1875 C5.75 16 5.75 16 3.625 15.1875 C2.375 12.625 2.375 12.625 1.625 10.1875 C0.635 10.1875 -0.355 10.1875 -1.375 10.1875 C-1.375 12.1675 -1.375 14.1475 -1.375 16.1875 C-2.365 16.1875 -3.355 16.1875 -4.375 16.1875 C-4.40185095 13.70826199 -4.42176547 11.2293116 -4.4375 8.75 C-4.45006836 7.68942383 -4.45006836 7.68942383 -4.46289062 6.60742188 C-4.47153588 4.80056441 -4.42720011 2.99362397 -4.375 1.1875 C-3.375 0.1875 -3.375 0.1875 0 0 Z M-1.375 2.1875 C-1.375 4.1675 -1.375 6.1475 -1.375 8.1875 C0.275 7.8575 1.925 7.5275 3.625 7.1875 C3.955 5.8675 4.285 4.5475 4.625 3.1875 C1.655 2.6925 1.655 2.6925 -1.375 2.1875 Z " fill="#595959" transform="translate(170.375,263.8125)"/>
<path d="M0 0 C0.99 0.33 1.98 0.66 3 1 C3 2.98 3 4.96 3 7 C4.98 7 6.96 7 9 7 C9 4.69 9 2.38 9 0 C9.99 0 10.98 0 12 0 C12 5.28 12 10.56 12 16 C11.01 16 10.02 16 9 16 C9 13.69 9 11.38 9 9 C7.02 9 5.04 9 3 9 C3 11.31 3 13.62 3 16 C2.01 16 1.02 16 0 16 C0 10.72 0 5.44 0 0 Z " fill="#6D6D6D" transform="translate(198,264)"/>
<path d="M0 0 C8 0 8 0 10.0625 1.1875 C11.40184476 3.77689986 10.82159973 5.26133423 10 8 C9.67 8.99 9.34 9.98 9 11 C9.87914688 13.6569191 9.87914688 13.6569191 11 16 C9.125 15.75 9.125 15.75 7 15 C6.30062468 13.68352881 5.63270867 12.34977849 5 11 C4.01 10.67 3.02 10.34 2 10 C2 11.98 2 13.96 2 16 C1.34 16 0.68 16 0 16 C0 10.72 0 5.44 0 0 Z M2 2 C2 3.98 2 5.96 2 8 C3.98 7.67 5.96 7.34 8 7 C8 5.68 8 4.36 8 3 C5.03 2.505 5.03 2.505 2 2 Z " fill="#747474" transform="translate(271,264)"/>
<path d="M0 0 C4.98777148 2.49388574 5.51258849 4.20284924 8 9 C8.33 6.03 8.66 3.06 9 0 C9.66 0 10.32 0 11 0 C11 5.28 11 10.56 11 16 C10.01 16 9.02 16 8 16 C6.35 13.03 4.7 10.06 3 7 C2.67 9.97 2.34 12.94 2 16 C1.34 16 0.68 16 0 16 C0 10.72 0 5.44 0 0 Z " fill="#595959" transform="translate(287,264)"/>
<path d="M0 0 C0.66 0 1.32 0 2 0 C2.33 4.62 2.66 9.24 3 14 C4.32 13.67 5.64 13.34 7 13 C8.28446919 10.43106162 8.32977144 8.23423663 8.5625 5.375 C8.64628906 4.37210937 8.73007812 3.36921875 8.81640625 2.3359375 C8.87699219 1.56507813 8.93757813 0.79421875 9 0 C9.66 0 10.32 0 11 0 C11.10794277 2.26979665 11.18556176 4.54105196 11.25 6.8125 C11.29640625 8.07707031 11.3428125 9.34164063 11.390625 10.64453125 C11 14 11 14 9.1796875 15.953125 C6.06242158 17.45030648 4.24265872 17.05738871 1 16 C-1.17428331 12.82947316 -1.24294363 10.08770746 -1.1875 6.3125 C-1.18105469 5.33925781 -1.17460937 4.36601562 -1.16796875 3.36328125 C-1 1 -1 1 0 0 Z " fill="#6B6B6B" transform="translate(254,264)"/>
<path d="M0 0 C3.3 0 6.6 0 10 0 C9.67 0.99 9.34 1.98 9 3 C7.02 3 5.04 3 3 3 C3 4.32 3 5.64 3 7 C4.98 7 6.96 7 9 7 C9 7.66 9 8.32 9 9 C7.02 9 5.04 9 3 9 C3 10.65 3 12.3 3 14 C5.31 14 7.62 14 10 14 C10 14.66 10 15.32 10 16 C6.7 16 3.4 16 0 16 C0 10.72 0 5.44 0 0 Z " fill="#747474" transform="translate(137,264)"/>
<path d="M0 0 C0.66 0 1.32 0 2 0 C2 2.31 2 4.62 2 7 C4.31 7 6.62 7 9 7 C9 4.69 9 2.38 9 0 C9.99 0.33 10.98 0.66 12 1 C12 5.95 12 10.9 12 16 C11.01 16 10.02 16 9 16 C9 13.69 9 11.38 9 9 C6.69 9 4.38 9 2 9 C2 11.31 2 13.62 2 16 C1.34 16 0.68 16 0 16 C0 10.72 0 5.44 0 0 Z " fill="#737373" transform="translate(68,264)"/>
<path d="M0 0 C0.99 0 1.98 0 3 0 C3.83719383 2.29032311 4.6698929 4.58210957 5.5 6.875 C5.73847656 7.52597656 5.97695313 8.17695313 6.22265625 8.84765625 C8 13.7734375 8 13.7734375 8 16 C7.01 16 6.02 16 5 16 C4.67 15.01 4.34 14.02 4 13 C2.35 13 0.7 13 -1 13 C-1.33 13.99 -1.66 14.98 -2 16 C-2.99 16 -3.98 16 -5 16 C-4.54548816 14.26982492 -4.08621143 12.54090123 -3.625 10.8125 C-3.36976563 9.84957031 -3.11453125 8.88664062 -2.8515625 7.89453125 C-2.05233704 5.17789793 -1.0968638 2.60862825 0 0 Z M1 4 C0.67 5.65 0.34 7.3 0 9 C0.99 9 1.98 9 3 9 C2.67 7.35 2.34 5.7 2 4 C1.67 4 1.34 4 1 4 Z " fill="#5C5C5C" transform="translate(307,264)"/>
<path d="M0 0 C0.99 0 1.98 0 3 0 C4.65 5.28 6.3 10.56 8 16 C7.01 16 6.02 16 5 16 C4.67 14.68 4.34 13.36 4 12 C2.02 12 0.04 12 -2 12 C-2.33 13.32 -2.66 14.64 -3 16 C-3.66 16 -4.32 16 -5 16 C-3.90301833 10.30860098 -2.45946923 5.25432063 0 0 Z M1 4 C0.67 5.65 0.34 7.3 0 9 C0.99 8.67 1.98 8.34 3 8 C2.34 6.68 1.68 5.36 1 4 Z " fill="#7D7D7D" transform="translate(155,264)"/>
<path d="M0 0 C0.99 0.103125 1.98 0.20625 3 0.3125 C3.66 1.3025 4.32 2.2925 5 3.3125 C2.50907189 4.55796405 1.58919267 4.0892578 -1 3.3125 C-1.33 4.3025 -1.66 5.2925 -2 6.3125 C-1.05125 6.539375 -0.1025 6.76625 0.875 7 C4 8.3125 4 8.3125 5.375 10.9375 C5.58125 11.72125 5.7875 12.505 6 13.3125 C4.375 15.375 4.375 15.375 2 17.3125 C-1.25 17.0625 -1.25 17.0625 -4 16.3125 C-4.33 15.3225 -4.66 14.3325 -5 13.3125 C-2.69 13.3125 -0.38 13.3125 2 13.3125 C2 12.6525 2 11.9925 2 11.3125 C1.030625 10.94125 0.06125 10.57 -0.9375 10.1875 C-4 8.3125 -4 8.3125 -5 5.25 C-5 1.10269909 -4.07040148 0.42400015 0 0 Z " fill="#767676" transform="translate(127,263.6875)"/>
<path d="M0 0 C0.66 0 1.32 0 2 0 C2.33 4.62 2.66 9.24 3 14 C4.65 14 6.3 14 8 14 C8.33 9.38 8.66 4.76 9 0 C9.66 0 10.32 0 11 0 C11.10794277 2.26979665 11.18556176 4.54105196 11.25 6.8125 C11.29640625 8.07707031 11.3428125 9.34164063 11.390625 10.64453125 C11 14 11 14 9.1484375 15.9609375 C6.32724788 17.32536739 4.92670179 17.00124009 2 16 C-0.64994113 13.35005887 -0.92248165 11.35657109 -1.1328125 7.67578125 C-1.13023438 6.89589844 -1.12765625 6.11601562 -1.125 5.3125 C-1.12757812 4.52488281 -1.13015625 3.73726563 -1.1328125 2.92578125 C-1 1 -1 1 0 0 Z " fill="#606060" transform="translate(36,264)"/>
<path d="M0 0 C2.97 0 5.94 0 9 0 C9 0.99 9 1.98 9 3 C6.69 3 4.38 3 2 3 C2 4.32 2 5.64 2 7 C3.98 7 5.96 7 8 7 C8 7.66 8 8.32 8 9 C6.02 9 4.04 9 2 9 C2 10.65 2 12.3 2 14 C4.64 14 7.28 14 10 14 C10 14.66 10 15.32 10 16 C6.7 16 3.4 16 0 16 C0 10.72 0 5.44 0 0 Z " fill="#525252" transform="translate(108,264)"/>
<path d="M0 0 C-0.33 0.99 -0.66 1.98 -1 3 C-1.598125 2.773125 -2.19625 2.54625 -2.8125 2.3125 C-5.01908085 1.77329814 -5.01908085 1.77329814 -6.8125 3 C-8.6500262 6.09478096 -7.7064591 8.59615163 -7 12 C-4.69 12 -2.38 12 0 12 C-0.33 12.99 -0.66 13.98 -1 15 C-3.1875 15.75 -3.1875 15.75 -6 16 C-9.36949111 14.08551641 -10.72084271 12.80257721 -12 9.125 C-12 5.30811493 -11.01521421 3.20941522 -9 0 C-5.93109813 -1.53445094 -3.29905734 -0.54984289 0 0 Z " fill="#646464" transform="translate(193,265)"/>
<path d="M0 0 C3.63 0 7.26 0 11 0 C11 0.99 11 1.98 11 3 C9.68 3 8.36 3 7 3 C7 7.29 7 11.58 7 16 C6.01 16 5.02 16 4 16 C4 11.71 4 7.42 4 3 C2.35 2.67 0.7 2.34 -1 2 C-0.67 1.34 -0.34 0.68 0 0 Z " fill="#7D7D7D" transform="translate(52,264)"/>
<path d="M0 0 C3.73639216 1.24546405 4.18756513 2.63404953 6 6 C6.99 4.02 7.98 2.04 9 0 C9.66 0 10.32 0 11 0 C10.58315135 2.50109193 10.19940269 4.62611996 9 6.875 C7.60765433 9.83373456 7.37234039 12.77304997 7 16 C6.01 16 5.02 16 4 16 C3.81824219 15.14728516 3.81824219 15.14728516 3.6328125 14.27734375 C2.58677946 9.45754536 1.40795516 4.7267066 0 0 Z " fill="#666666" transform="translate(3,264)"/>
<path d="M0 0 C0.66 0 1.32 0 2 0 C2.08097324 2.27024968 2.13917704 4.54132075 2.1875 6.8125 C2.22230469 8.07707031 2.25710937 9.34164063 2.29296875 10.64453125 C2 14 2 14 0.65625 15.96875 C-1 17 -1 17 -3.6875 16.6875 C-4.450625 16.460625 -5.21375 16.23375 -6 16 C-6.33 15.01 -6.66 14.02 -7 13 C-4.03 13.495 -4.03 13.495 -1 14 C-1.01160156 13.07316406 -1.02320313 12.14632813 -1.03515625 11.19140625 C-1.04417969 9.99386719 -1.05320313 8.79632813 -1.0625 7.5625 C-1.07410156 6.36753906 -1.08570313 5.17257812 -1.09765625 3.94140625 C-1 1 -1 1 0 0 Z " fill="#797979" transform="translate(228,264)"/>
<path d="M0 0 C0.99 0.33 1.98 0.66 3 1 C3 5.29 3 9.58 3 14 C4.98 14 6.96 14 9 14 C9 14.66 9 15.32 9 16 C6.03 16 3.06 16 0 16 C0 10.72 0 5.44 0 0 Z " fill="#717171" transform="translate(319,264)"/>
<path d="M0 0 C3.625 0.1875 3.625 0.1875 6.625 2.1875 C6.8125 5.3125 6.8125 5.3125 6.625 8.1875 C5.965 8.1875 5.305 8.1875 4.625 8.1875 C4.625 6.5375 4.625 4.8875 4.625 3.1875 C1.655 2.6925 1.655 2.6925 -1.375 2.1875 C-1.375 4.1675 -1.375 6.1475 -1.375 8.1875 C-1.705 8.1875 -2.035 8.1875 -2.375 8.1875 C-2.705 10.8275 -3.035 13.4675 -3.375 16.1875 C-3.705 16.1875 -4.035 16.1875 -4.375 16.1875 C-4.40185095 13.70826199 -4.42176547 11.2293116 -4.4375 8.75 C-4.45006836 7.68942383 -4.45006836 7.68942383 -4.46289062 6.60742188 C-4.47153588 4.80056441 -4.42720011 2.99362397 -4.375 1.1875 C-3.375 0.1875 -3.375 0.1875 0 0 Z " fill="#848484" transform="translate(170.375,263.8125)"/>
<path d="M0 0 C0.99 0 1.98 0 3 0 C3 5.28 3 10.56 3 16 C2.01 16 1.02 16 0 16 C-0.82622671 10.39436958 -1.06795656 5.57710648 0 0 Z " fill="#757575" transform="translate(207,264)"/>
<path d="M0 0 C0.99 0.33 1.98 0.66 3 1 C3.33 3.97 3.66 6.94 4 10 C7.93075644 9.42547254 7.93075644 9.42547254 11 7 C11.33 8.32 11.66 9.64 12 11 C9.58978936 12.51754003 8.31664378 13.02316906 5.4375 12.8125 C2.73223221 11.91074407 1.738989 11.2287043 0 9 C-0.29296875 6.73828125 -0.29296875 6.73828125 -0.1875 4.3125 C-0.16042969 3.50425781 -0.13335937 2.69601562 -0.10546875 1.86328125 C-0.07066406 1.24839844 -0.03585938 0.63351562 0 0 Z " fill="#7C7C7C" transform="translate(235,268)"/>
<path d="M0 0 C1.98 0.99 1.98 0.99 4 2 C4 3.65 4 5.3 4 7 C3.67 7 3.34 7 3 7 C2.67 9.97 2.34 12.94 2 16 C1.34 16 0.68 16 0 16 C0 10.72 0 5.44 0 0 Z " fill="#515151" transform="translate(287,264)"/>
<path d="M0 0 C0.99 0 1.98 0 3 0 C5.125 6.625 5.125 6.625 4 10 C2.35 10 0.7 10 -1 10 C-2.15837626 5.94568308 -1.83691257 3.78187881 0 0 Z M1 4 C0.67 5.65 0.34 7.3 0 9 C0.99 9 1.98 9 3 9 C2.67 7.35 2.34 5.7 2 4 C1.67 4 1.34 4 1 4 Z " fill="#777777" transform="translate(307,264)"/>
<path d="M0 0 C0.66 0 1.32 0 2 0 C2 2.31 2 4.62 2 7 C3.98 7 5.96 7 8 7 C8 7.33 8 7.66 8 8 C6.02 8 4.04 8 2 8 C2 10.64 2 13.28 2 16 C1.34 16 0.68 16 0 16 C0 10.72 0 5.44 0 0 Z " fill="#3A3A3A" transform="translate(68,264)"/>
<path d="M0 0 C0.66 0 1.32 0 2 0 C1.47731534 2.76276177 0.89130413 5.3260876 0 8 C0.87914688 10.6569191 0.87914688 10.6569191 2 13 C1.01 13 0.02 13 -1 13 C-3.29013653 9.5647952 -3.17842973 8.014669 -3 4 C-2.34 3.67 -1.68 3.34 -1 3 C-0.67 2.01 -0.34 1.02 0 0 Z " fill="#646464" transform="translate(101,267)"/>
<path d="M0 0 C0.66 0.33 1.32 0.66 2 1 C0.71034824 2.37562854 -0.62689293 3.70766393 -2 5 C-2.66 5 -3.32 5 -4 5 C-4 11.93 -4 18.86 -4 26 C-4.33 26 -4.66 26 -5 26 C-5.14533755 22.417094 -5.23407931 18.83494583 -5.3125 15.25 C-5.35439453 14.23421875 -5.39628906 13.2184375 -5.43945312 12.171875 C-5.56390832 4.60499931 -5.56390832 4.60499931 -2.48046875 1.296875 C-1.66191406 0.86890625 -0.84335938 0.4409375 0 0 Z " fill="#A1C4A4" transform="translate(110,38)"/>
<path d="M0 0 C0.66 0 1.32 0 2 0 C2.309375 1.11375 2.61875 2.2275 2.9375 3.375 C3.82326483 6.7945155 3.82326483 6.7945155 5 9 C7.01669827 10.13350534 7.01669827 10.13350534 9 11 C7.3125 11.8125 7.3125 11.8125 5 12 C2.25 10 2.25 10 0 7 C-0.3125 3.1875 -0.3125 3.1875 0 0 Z " fill="#5E5E5E" transform="translate(17,269)"/>
<path d="M0 0 C0.99 0.495 0.99 0.495 2 1 C2 2.98 2 4.96 2 7 C2.99 7.33 3.98 7.66 5 8 C4.01 8 3.02 8 2 8 C2 10.31 2 12.62 2 15 C1.34 15 0.68 15 0 15 C0 10.05 0 5.1 0 0 Z " fill="#3D3D3D" transform="translate(271,265)"/>
<path d="M0 0 C1.010625 0.0825 2.02125 0.165 3.0625 0.25 C3.7225 1.24 4.3825 2.23 5.0625 3.25 C2.57157189 4.49546405 1.65169267 4.0267578 -0.9375 3.25 C-1.9275 4.735 -1.9275 4.735 -2.9375 6.25 C-3.5975 6.25 -4.2575 6.25 -4.9375 6.25 C-3.87489612 0.32977839 -3.87489612 0.32977839 0 0 Z " fill="#7B7B7B" transform="translate(126.9375,263.75)"/>
<path d="M0 0 C7.75 -0.125 7.75 -0.125 10 1 C9.67 2.65 9.34 4.3 9 6 C8.67 5.01 8.34 4.02 8 3 C6.35 2.67 4.7 2.34 3 2 C3 3.98 3 5.96 3 8 C2.67 8 2.34 8 2 8 C1.34 5.36 0.68 2.72 0 0 Z " fill="#878787" transform="translate(92,264)"/>
<path d="M0 0 C0.33 0.66 0.66 1.32 1 2 C2.66321482 2.35015049 4.33034549 2.68197057 6 3 C6.99 3.66 7.98 4.32 9 5 C8.67 6.32 8.34 7.64 8 9 C6.65654015 8.26829419 5.32539416 7.51394247 4 6.75 C2.88625 6.12351562 2.88625 6.12351562 1.75 5.484375 C1.1725 4.99453125 0.595 4.5046875 0 4 C0 2.68 0 1.36 0 0 Z " fill="#5F5F5F" transform="translate(123,268)"/>
<path d="M0 0 C2.97 0 5.94 0 9 0 C9 0.99 9 1.98 9 3 C6.69 3 4.38 3 2 3 C1.67 4.32 1.34 5.64 1 7 C0.67 4.69 0.34 2.38 0 0 Z " fill="#777777" transform="translate(108,264)"/>
<path d="M0 0 C-0.33 0.99 -0.66 1.98 -1 3 C-1.5775 2.773125 -2.155 2.54625 -2.75 2.3125 C-5.12172477 1.73494807 -5.12172477 1.73494807 -7.25 3.4375 C-8.11625 4.2109375 -8.11625 4.2109375 -9 5 C-9.33 3.68 -9.66 2.36 -10 1 C-6.1496895 -1.56687367 -4.41430237 -0.83288724 0 0 Z " fill="#767676" transform="translate(193,265)"/>
<path d="M0 0 C0.99 2.64 1.98 5.28 3 8 C1.68 7.67 0.36 7.34 -1 7 C-2.0625 5.0625 -2.0625 5.0625 -3 3 C-3.99 2.34 -4.98 1.68 -6 1 C-3 0 -3 0 0 0 Z " fill="#676767" transform="translate(279,272)"/>
<path d="M0 0 C0.33 0.66 0.66 1.32 1 2 C0.67 2.99 0.34 3.98 0 5 C0.99 5.33 1.98 5.66 3 6 C1.68 6 0.36 6 -1 6 C-1.33 7.65 -1.66 9.3 -2 11 C-2.66 11 -3.32 11 -4 11 C-3.71758359 9.53984709 -3.42373386 8.08190207 -3.125 6.625 C-2.96257812 5.81289063 -2.80015625 5.00078125 -2.6328125 4.1640625 C-2 2 -2 2 0 0 Z " fill="#565656" transform="translate(154,269)"/>
<path d="M0 0 C0.66 0 1.32 0 2 0 C2 0.66 2 1.32 2 2 C3.65 2 5.3 2 7 2 C7.33 1.34 7.66 0.68 8 0 C8.33 0.99 8.66 1.98 9 3 C6 5 6 5 3.3125 4.625 C2.549375 4.41875 1.78625 4.2125 1 4 C0.67 2.68 0.34 1.36 0 0 Z " fill="#696969" transform="translate(37,276)"/>
<path d="M0 0 C0.66 2.31 1.32 4.62 2 7 C1.01 7 0.02 7 -1 7 C-1.33 5.68 -1.66 4.36 -2 3 C-3.98 3 -5.96 3 -8 3 C-2 0 -2 0 0 0 Z " fill="#767676" transform="translate(161,273)"/>
<path d="M0 0 C1.9451 2.91765 2.45276317 4.62537285 3 8 C2.01 8 1.02 8 0 8 C-0.33 7.01 -0.66 6.02 -1 5 C-2.65 4.67 -4.3 4.34 -6 4 C-6 3.67 -6 3.34 -6 3 C-5.195625 2.87625 -4.39125 2.7525 -3.5625 2.625 C-2.716875 2.41875 -1.87125 2.2125 -1 2 C-0.67 1.34 -0.34 0.68 0 0 Z " fill="#7D7D7D" transform="translate(312,272)"/>
<path d="M0 0 C0.66 0 1.32 0 2 0 C1.46930939 3.82097239 0.50298434 6.06171403 -2 9 C-2.66 8.34 -3.32 7.68 -4 7 C-2.68 4.69 -1.36 2.38 0 0 Z " fill="#757575" transform="translate(12,264)"/>
<path d="M0 0 C0.99 0.33 1.98 0.66 3 1 C4.1875 4.0625 4.1875 4.0625 5 7 C4.34 7.66 3.68 8.32 3 9 C2.01 6.03 1.02 3.06 0 0 Z " fill="#737373" transform="translate(3,264)"/>
<path d="M0 0 C0.66 0.33 1.32 0.66 2 1 C1.67 2.32 1.34 3.64 1 5 C-0.65 5.33 -2.3 5.66 -4 6 C-4.33 5.34 -4.66 4.68 -5 4 C-3.68 4 -2.36 4 -1 4 C-0.67 2.68 -0.34 1.36 0 0 Z " fill="#666666" transform="translate(262,275)"/>
</svg>
